<svg xmlns="http://www.w3.org/2000/svg" xmlns:xlink="http://www.w3.org/1999/xlink" contentStyleType="text/css" data-diagram-type="CLASS" height="340px" preserveAspectRatio="none" style="width:2570px;height:340px;background:#FFFFFF;" version="1.1" viewBox="0 0 2570 340" width="2570px" zoomAndPan="magnify"><?plantuml 1.2026.5?><defs/><g><!--class TransactionController--><g class="entity" data-qualified-name="TransactionController" data-source-line="4" id="ent0001"><rect fill="#F1F1F1" height="113.1875" rx="2.5" ry="2.5" style="stroke:#181818;stroke-width:0.5;" width="694.7324" x="7" y="7"/><ellipse cx="274.4561" cy="23" fill="#ADD1B2" rx="11" ry="11" style="stroke:#181818;stroke-width:1;"/><path d="M277.4248,28.6406 Q276.8467,28.9375 276.2061,29.0781 Q275.5654,29.2344 274.8623,29.2344 Q272.3623,29.2344 271.0342,27.5938 Q269.7217,25.9375 269.7217,22.8125 Q269.7217,19.6875 271.0342,18.0313 Q272.3623,16.375 274.8623,16.375 Q275.5654,16.375 276.2061,16.5313 Q276.8623,16.6875 277.4248,16.9844 L277.4248,19.7031 Q276.7998,19.125 276.2061,18.8594 Q275.6123,18.5781 274.9873,18.5781 Q273.6436,18.5781 272.9561,19.6563 Q272.2686,20.7188 272.2686,22.8125 Q272.2686,24.9063 272.9561,25.9844 Q273.6436,27.0469 274.9873,27.0469 Q275.6123,27.0469 276.2061,26.7813 Q276.7998,26.5 277.4248,25.9219 L277.4248,28.6406 Z " fill="#000000"/><text fill="#000000" font-family="sans-serif" font-size="14" lengthAdjust="spacing" textLength="151.3203" x="294.9561" y="27.8467">TransactionController</text><line style="stroke:#181818;stroke-width:0.5;" x1="8" x2="700.7324" y1="39" y2="39"/><text fill="#000000" font-family="sans-serif" font-size="14" lengthAdjust="spacing" textLength="241.9854" x="13" y="55.9951">-paymentService: PaymentService</text><text fill="#000000" font-family="sans-serif" font-size="14" lengthAdjust="spacing" textLength="343.9092" x="13" y="72.292">-paymentStreamService: PaymentStreamService</text><line style="stroke:#181818;stroke-width:0.5;" x1="8" x2="700.7324" y1="79.5938" y2="79.5938"/><text fill="#000000" font-family="sans-serif" font-size="14" lengthAdjust="spacing" textLength="682.7324" x="13" y="96.5889">+receiver(body: WebhookTransactionRequestDto): Promise&lt;WebhookTransactionResponseDto&gt;</text><text fill="#000000" font-family="sans-serif" font-size="14" lengthAdjust="spacing" textLength="377.1934" x="13" y="112.8857">+handle(userId: string): Observable&lt;MessageEvent&gt;</text></g><!--class PaymentController--><g class="entity" data-qualified-name="PaymentController" data-source-line="11" id="ent0002"><rect fill="#F1F1F1" height="96.8906" rx="2.5" ry="2.5" style="stroke:#181818;stroke-width:0.5;" width="576.5391" x="66.1" y="155.15"/><ellipse cx="284.5731" cy="171.15" fill="#ADD1B2" rx="11" ry="11" style="stroke:#181818;stroke-width:1;"/><path d="M287.5419,176.7906 Q286.9638,177.0875 286.3231,177.2281 Q285.6825,177.3844 284.9794,177.3844 Q282.4794,177.3844 281.1513,175.7438 Q279.8388,174.0875 279.8388,170.9625 Q279.8388,167.8375 281.1513,166.1813 Q282.4794,164.525 284.9794,164.525 Q285.6825,164.525 286.3231,164.6813 Q286.9794,164.8375 287.5419,165.1344 L287.5419,167.8531 Q286.9169,167.275 286.3231,167.0094 Q285.7294,166.7281 285.1044,166.7281 Q283.7606,166.7281 283.0731,167.8063 Q282.3856,168.8688 282.3856,170.9625 Q282.3856,173.0563 283.0731,174.1344 Q283.7606,175.1969 285.1044,175.1969 Q285.7294,175.1969 286.3231,174.9313 Q286.9169,174.65 287.5419,174.0719 L287.5419,176.7906 Z " fill="#000000"/><text fill="#000000" font-family="sans-serif" font-size="14" lengthAdjust="spacing" textLength="131.0928" x="305.0731" y="175.9967">PaymentController</text><line style="stroke:#181818;stroke-width:0.5;" x1="67.1" x2="641.6391" y1="187.15" y2="187.15"/><text fill="#000000" font-family="sans-serif" font-size="14" lengthAdjust="spacing" textLength="241.9854" x="72.1" y="204.1451">-paymentService: PaymentService</text><line style="stroke:#181818;stroke-width:0.5;" x1="67.1" x2="641.6391" y1="211.4469" y2="211.4469"/><text fill="#000000" font-family="sans-serif" font-size="14" lengthAdjust="spacing" textLength="438.0947" x="72.1" y="228.442">+getPayment(id: string): Promise&lt;GetPaymentResponseDto&gt;</text><text fill="#000000" font-family="sans-serif" font-size="14" lengthAdjust="spacing" textLength="564.5391" x="72.1" y="244.7389">+createTopup(body, processId, userId): Promise&lt;CreatePaymentResponseDto&gt;</text></g><!--class PaymentService--><g class="entity" data-qualified-name="PaymentService" data-source-line="17" id="ent0003"><rect fill="#F1F1F1" height="113.1875" rx="2.5" ry="2.5" style="stroke:#181818;stroke-width:0.5;" width="669.8975" x="841.73" y="147"/><ellipse cx="1115.5982" cy="163" fill="#ADD1B2" rx="11" ry="11" style="stroke:#181818;stroke-width:1;"/><path d="M1118.5669,168.6406 Q1117.9888,168.9375 1117.3482,169.0781 Q1116.7075,169.2344 1116.0044,169.2344 Q1113.5044,169.2344 1112.1763,167.5938 Q1110.8638,165.9375 1110.8638,162.8125 Q1110.8638,159.6875 1112.1763,158.0313 Q1113.5044,156.375 1116.0044,156.375 Q1116.7075,156.375 1117.3482,156.5313 Q1118.0044,156.6875 1118.5669,156.9844 L1118.5669,159.7031 Q1117.9419,159.125 1117.3482,158.8594 Q1116.7544,158.5781 1116.1294,158.5781 Q1114.7857,158.5781 1114.0982,159.6563 Q1113.4107,160.7188 1113.4107,162.8125 Q1113.4107,164.9063 1114.0982,165.9844 Q1114.7857,167.0469 1116.1294,167.0469 Q1116.7544,167.0469 1117.3482,166.7813 Q1117.9419,166.5 1118.5669,165.9219 L1118.5669,168.6406 Z " fill="#000000"/><text fill="#000000" font-family="sans-serif" font-size="14" lengthAdjust="spacing" textLength="113.6611" x="1136.0982" y="167.8467">PaymentService</text><line style="stroke:#181818;stroke-width:0.5;" x1="842.73" x2="1510.6275" y1="179" y2="179"/><text fill="#000000" font-family="sans-serif" font-size="14" lengthAdjust="spacing" textLength="183.4902" x="847.73" y="195.9951">-paymentGrpc: ClientGrpc</text><line style="stroke:#181818;stroke-width:0.5;" x1="842.73" x2="1510.6275" y1="203.2969" y2="203.2969"/><text fill="#000000" font-family="sans-serif" font-size="14" lengthAdjust="spacing" textLength="554.8799" x="847.73" y="220.292">+createPayment(data: CreatePaymentRequest): Promise&lt;PaymentResponse&gt;</text><text fill="#000000" font-family="sans-serif" font-size="14" lengthAdjust="spacing" textLength="388.3086" x="847.73" y="236.5889">+getPayment(id: string): Promise&lt;PaymentResponse&gt;</text><text fill="#000000" font-family="sans-serif" font-size="14" lengthAdjust="spacing" textLength="657.8975" x="847.73" y="252.8857">+receiver(body: WebhookTransactionRequestDto): Promise&lt;WebhookTransactionResponse&gt;</text></g><!--class PaymentStreamService--><g class="entity" data-qualified-name="PaymentStreamService" data-source-line="24" id="ent0004"><rect fill="#F1F1F1" height="96.8906" rx="2.5" ry="2.5" style="stroke:#181818;stroke-width:0.5;" width="297.9404" x="1027.71" y="15.15"/><ellipse cx="1090.1187" cy="31.15" fill="#ADD1B2" rx="11" ry="11" style="stroke:#181818;stroke-width:1;"/><path d="M1093.0874,36.7906 Q1092.5093,37.0875 1091.8687,37.2281 Q1091.2281,37.3844 1090.5249,37.3844 Q1088.0249,37.3844 1086.6968,35.7437 Q1085.3843,34.0875 1085.3843,30.9625 Q1085.3843,27.8375 1086.6968,26.1812 Q1088.0249,24.525 1090.5249,24.525 Q1091.2281,24.525 1091.8687,24.6812 Q1092.5249,24.8375 1093.0874,25.1344 L1093.0874,27.8531 Q1092.4624,27.275 1091.8687,27.0094 Q1091.2749,26.7281 1090.6499,26.7281 Q1089.3062,26.7281 1088.6187,27.8062 Q1087.9312,28.8687 1087.9312,30.9625 Q1087.9312,33.0562 1088.6187,34.1344 Q1089.3062,35.1969 1090.6499,35.1969 Q1091.2749,35.1969 1091.8687,34.9312 Q1092.4624,34.65 1093.0874,34.0719 L1093.0874,36.7906 Z " fill="#000000"/><text fill="#000000" font-family="sans-serif" font-size="14" lengthAdjust="spacing" textLength="164.623" x="1110.6187" y="35.9967">PaymentStreamService</text><line style="stroke:#181818;stroke-width:0.5;" x1="1028.71" x2="1324.6504" y1="47.15" y2="47.15"/><text fill="#000000" font-family="sans-serif" font-size="14" lengthAdjust="spacing" textLength="242.2246" x="1033.71" y="64.1451">-subject: Subject&lt;MessageEvent&gt;</text><line style="stroke:#181818;stroke-width:0.5;" x1="1028.71" x2="1324.6504" y1="71.4469" y2="71.4469"/><text fill="#000000" font-family="sans-serif" font-size="14" lengthAdjust="spacing" textLength="178.4795" x="1033.71" y="88.442">+publish(data: any): void</text><text fill="#000000" font-family="sans-serif" font-size="14" lengthAdjust="spacing" textLength="285.9404" x="1033.71" y="104.7389">+stream(): Observable&lt;MessageEvent&gt;</text></g><!--class WebhookTransactionRequestDto--><g class="entity" data-qualified-name="WebhookTransactionRequestDto" data-source-line="30" id="ent0005"><rect fill="#F1F1F1" height="243.5625" rx="2.5" ry="2.5" style="stroke:#181818;stroke-width:0.5;" width="261.9336" x="2293.22" y="81.82"/><ellipse cx="2308.22" cy="97.82" fill="#ADD1B2" rx="11" ry="11" style="stroke:#181818;stroke-width:1;"/><path d="M2311.1888,103.4606 Q2310.6106,103.7575 2309.97,103.8981 Q2309.3294,104.0544 2308.6263,104.0544 Q2306.1263,104.0544 2304.7981,102.4138 Q2303.4856,100.7575 2303.4856,97.6325 Q2303.4856,94.5075 2304.7981,92.8513 Q2306.1263,91.195 2308.6263,91.195 Q2309.3294,91.195 2309.97,91.3513 Q2310.6263,91.5075 2311.1888,91.8044 L2311.1888,94.5231 Q2310.5638,93.945 2309.97,93.6794 Q2309.3763,93.3981 2308.7513,93.3981 Q2307.4075,93.3981 2306.72,94.4763 Q2306.0325,95.5388 2306.0325,97.6325 Q2306.0325,99.7263 2306.72,100.8044 Q2307.4075,101.8669 2308.7513,101.8669 Q2309.3763,101.8669 2309.97,101.6013 Q2310.5638,101.32 2311.1888,100.7419 L2311.1888,103.4606 Z " fill="#000000"/><text fill="#000000" font-family="sans-serif" font-size="14" lengthAdjust="spacing" textLength="229.9336" x="2322.22" y="102.6667">WebhookTransactionRequestDto</text><line style="stroke:#181818;stroke-width:0.5;" x1="2294.22" x2="2554.1536" y1="113.82" y2="113.82"/><text fill="#000000" font-family="sans-serif" font-size="14" lengthAdjust="spacing" textLength="88.3135" x="2299.22" y="130.8151">+id: number</text><text fill="#000000" font-family="sans-serif" font-size="14" lengthAdjust="spacing" textLength="120.9688" x="2299.22" y="147.112">+gateway: string</text><text fill="#000000" font-family="sans-serif" font-size="14" lengthAdjust="spacing" textLength="173.6328" x="2299.22" y="163.4089">+transactionDate: string</text><text fill="#000000" font-family="sans-serif" font-size="14" lengthAdjust="spacing" textLength="173.0996" x="2299.22" y="179.7057">+accountNumber: string</text><text fill="#000000" font-family="sans-serif" font-size="14" lengthAdjust="spacing" textLength="94.8486" x="2299.22" y="196.0026">+code: string</text><text fill="#000000" font-family="sans-serif" font-size="14" lengthAdjust="spacing" textLength="114.6865" x="2299.22" y="212.2995">+content: string</text><text fill="#000000" font-family="sans-serif" font-size="14" lengthAdjust="spacing" textLength="150.7119" x="2299.22" y="228.5964">+transferType: string</text><text fill="#000000" font-family="sans-serif" font-size="14" lengthAdjust="spacing" textLength="185.8418" x="2299.22" y="244.8932">+transferAmount: number</text><text fill="#000000" font-family="sans-serif" font-size="14" lengthAdjust="spacing" textLength="166.3525" x="2299.22" y="261.1901">+accumulated: number</text><text fill="#000000" font-family="sans-serif" font-size="14" lengthAdjust="spacing" textLength="142.9121" x="2299.22" y="277.487">+subAccount: string</text><text fill="#000000" font-family="sans-serif" font-size="14" lengthAdjust="spacing" textLength="164.3906" x="2299.22" y="293.7839">+referenceCode: string</text><text fill="#000000" font-family="sans-serif" font-size="14" lengthAdjust="spacing" textLength="138.9268" x="2299.22" y="310.0807">+description: string</text><line style="stroke:#181818;stroke-width:0.5;" x1="2294.22" x2="2554.1536" y1="317.3825" y2="317.3825"/></g><!--class TransactionRepository--><g class="entity" data-qualified-name="TransactionRepository" data-source-line="45" id="ent0006"><rect fill="#F1F1F1" height="96.8906" rx="2.5" ry="2.5" style="stroke:#181818;stroke-width:0.5;" width="531.5859" x="1646.63" y="214.15"/><ellipse cx="1829.5631" cy="230.15" fill="#ADD1B2" rx="11" ry="11" style="stroke:#181818;stroke-width:1;"/><path d="M1832.5319,235.7906 Q1831.9537,236.0875 1831.3131,236.2281 Q1830.6725,236.3844 1829.9694,236.3844 Q1827.4694,236.3844 1826.1412,234.7437 Q1824.8287,233.0875 1824.8287,229.9625 Q1824.8287,226.8375 1826.1412,225.1812 Q1827.4694,223.525 1829.9694,223.525 Q1830.6725,223.525 1831.3131,223.6812 Q1831.9694,223.8375 1832.5319,224.1344 L1832.5319,226.8531 Q1831.9069,226.275 1831.3131,226.0094 Q1830.7194,225.7281 1830.0944,225.7281 Q1828.7506,225.7281 1828.0631,226.8062 Q1827.3756,227.8687 1827.3756,229.9625 Q1827.3756,232.0562 1828.0631,233.1344 Q1828.7506,234.1969 1830.0944,234.1969 Q1830.7194,234.1969 1831.3131,233.9312 Q1831.9069,233.65 1832.5319,233.0719 L1832.5319,235.7906 Z " fill="#000000"/><text fill="#000000" font-family="sans-serif" font-size="14" lengthAdjust="spacing" textLength="157.2197" x="1850.0631" y="234.9967">TransactionRepository</text><line style="stroke:#181818;stroke-width:0.5;" x1="1647.63" x2="2177.2159" y1="246.15" y2="246.15"/><text fill="#000000" font-family="sans-serif" font-size="14" lengthAdjust="spacing" textLength="161.6016" x="1652.63" y="263.1451">-prisma: PrismaService</text><line style="stroke:#181818;stroke-width:0.5;" x1="1647.63" x2="2177.2159" y1="270.4469" y2="270.4469"/><text fill="#000000" font-family="sans-serif" font-size="14" lengthAdjust="spacing" textLength="519.5859" x="1652.63" y="287.442">+receiver(data: WebhookTransactionRequest): Promise&lt;ReceiverResult&gt;</text><text fill="#000000" font-family="sans-serif" font-size="14" lengthAdjust="spacing" textLength="309.2646" x="1652.63" y="303.7389">-extractPaymentCode(code, content): string</text></g><!--reverse link TransactionController to PaymentService--><g class="link" data-entity-1="ent0001" data-entity-2="ent0003" data-link-type="aggregation" data-source-line="51" id="lnk7"><path codeLine="51" d="M701.4389,122.6591 C751.5289,131.2091 791.36,138.01 841.45,146.56" fill="none" id="TransactionController-backto-PaymentService" style="stroke:#181818;stroke-width:1;"/><polygon fill="none" points="689.61,120.64,694.8514,125.5925,701.4389,122.6591,696.1975,117.7066,689.61,120.64" style="stroke:#181818;stroke-width:1;stroke-linejoin:miter;stroke-miterlimit:10;"/><text fill="#000000" font-family="sans-serif" font-size="13" lengthAdjust="spacing" textLength="63.9463" x="740.23" y="125.6669">delegates</text><text fill="#000000" font-family="sans-serif" font-size="13" lengthAdjust="spacing" textLength="8.271" x="710.0879" y="138.2595">1</text><text fill="#000000" font-family="sans-serif" font-size="13" lengthAdjust="spacing" textLength="8.271" x="825.5025" y="157.4675">1</text></g><!--reverse link TransactionController to PaymentStreamService--><g class="link" data-entity-1="ent0001" data-entity-2="ent0004" data-link-type="aggregation" data-source-line="52" id="lnk8"><path codeLine="52" d="M714.06,63.6 C827.86,63.6 936.34,63.6 1027.31,63.6" fill="none" id="TransactionController-backto-PaymentStreamService" style="stroke:#181818;stroke-width:1;"/><polygon fill="none" points="702.06,63.6,708.06,67.6,714.06,63.6,708.06,59.6,702.06,63.6" style="stroke:#181818;stroke-width:1;stroke-linejoin:miter;stroke-miterlimit:10;"/><text fill="#000000" font-family="sans-serif" font-size="13" lengthAdjust="spacing" textLength="78.9331" x="732.73" y="59.6669">publishes to</text><text fill="#000000" font-family="sans-serif" font-size="13" lengthAdjust="spacing" textLength="8.271" x="709.2065" y="75.8207">1</text><text fill="#000000" font-family="sans-serif" font-size="13" lengthAdjust="spacing" textLength="8.271" x="1011.4088" y="76.0573">1</text></g><!--reverse link PaymentController to PaymentService--><g class="link" data-entity-1="ent0002" data-entity-2="ent0003" data-link-type="aggregation" data-source-line="53" id="lnk9"><path codeLine="53" d="M654.85,203.6 C719.04,203.6 775.66,203.6 841.55,203.6" fill="none" id="PaymentController-backto-PaymentService" style="stroke:#181818;stroke-width:1;"/><polygon fill="none" points="642.85,203.6,648.85,207.6,654.85,203.6,648.85,199.6,642.85,203.6" style="stroke:#181818;stroke-width:1;stroke-linejoin:miter;stroke-miterlimit:10;"/><text fill="#000000" font-family="sans-serif" font-size="13" lengthAdjust="spacing" textLength="63.9463" x="740.23" y="199.6669">delegates</text><text fill="#000000" font-family="sans-serif" font-size="13" lengthAdjust="spacing" textLength="8.271" x="650.6226" y="215.868">1</text><text fill="#000000" font-family="sans-serif" font-size="13" lengthAdjust="spacing" textLength="8.271" x="825.6048" y="215.8444">1</text></g><!--reverse link PaymentService to TransactionRepository--><g class="link" data-entity-1="ent0003" data-entity-2="ent0006" data-link-type="aggregation" data-source-line="54" id="lnk10"><path codeLine="54" d="M1524.0413,231.4524 C1569.0313,235.0724 1602.72,237.78 1646.3,241.28" fill="none" id="PaymentService-backto-TransactionRepository" style="stroke:#181818;stroke-width:1;"/><polygon fill="none" points="1512.08,230.49,1517.7399,234.9583,1524.0413,231.4524,1518.3815,226.9841,1512.08,230.49" style="stroke:#181818;stroke-width:1;stroke-linejoin:miter;stroke-miterlimit:10;"/><text fill="#000000" font-family="sans-serif" font-size="13" lengthAdjust="spacing" textLength="73.8994" x="1542.63" y="228.6669">aggregates</text><text fill="#000000" font-family="sans-serif" font-size="13" lengthAdjust="spacing" textLength="8.271" x="1520.0379" y="243.3646">1</text><text fill="#000000" font-family="sans-serif" font-size="13" lengthAdjust="spacing" textLength="8.271" x="1630.2847" y="252.9387">1</text></g><!--link PaymentService to WebhookTransactionRequestDto--><g class="link" data-entity-1="ent0003" data-entity-2="ent0005" data-link-type="dependency" data-source-line="55" id="lnk11"><path codeLine="55" d="M1511.98,198 C1557.23,197.42 1603.07,196.92 1646.63,196.6 C1882.88,194.84 1941.96,195.21 2178.22,196.6 C2216,196.82 2225.45,196.67 2263.22,197.6 C2272.94,197.84 2278.0025,197.9618 2288.1125,198.2818" fill="none" id="PaymentService-to-WebhookTransactionRequestDto" style="stroke:#181818;stroke-width:1;stroke-dasharray:7,7;"/><polygon fill="#181818" points="2293.11,198.44,2284.241,194.1573,2288.1125,198.2818,2283.988,202.1533,2293.11,198.44" style="stroke:#181818;stroke-width:1;stroke-linejoin:miter;stroke-miterlimit:10;"/><text fill="#000000" font-family="sans-serif" font-size="13" lengthAdjust="spacing" textLength="65.0127" x="1879.92" y="190.6669">processes</text><text fill="#000000" font-family="sans-serif" font-size="13" lengthAdjust="spacing" textLength="8.271" x="1519.9355" y="210.1131">1</text><text fill="#000000" font-family="sans-serif" font-size="13" lengthAdjust="spacing" textLength="8.271" x="2276.887" y="210.6535">1</text></g><!--link TransactionRepository to WebhookTransactionRequestDto--><g class="link" data-entity-1="ent0006" data-entity-2="ent0005" data-link-type="dependency" data-source-line="56" id="lnk12"><path codeLine="56" d="M2178.38,231.93 C2218.22,227.32 2252.7631,223.3244 2288.0431,219.2444" fill="none" id="TransactionRepository-to-WebhookTransactionRequestDto" style="stroke:#181818;stroke-width:1;stroke-dasharray:7,7;"/><polygon fill="#181818" points="2293.01,218.67,2283.6101,215.7304,2288.0431,219.2444,2284.5291,223.6774,2293.01,218.67" style="stroke:#181818;stroke-width:1;stroke-linejoin:miter;stroke-miterlimit:10;"/><text fill="#000000" font-family="sans-serif" font-size="13" lengthAdjust="spacing" textLength="53.1172" x="2209.22" y="218.6669">extracts</text><text fill="#000000" font-family="sans-serif" font-size="13" lengthAdjust="spacing" textLength="8.271" x="2186.3984" y="243.3111">1</text><text fill="#000000" font-family="sans-serif" font-size="13" lengthAdjust="spacing" textLength="8.271" x="2276.7809" y="232.1162">1</text></g><?plantuml-src hLN9Rjim4BthAuYS5DWEqgiG632S8l2X2sm3FLFKH6P3aGmNjMgHV-z8fXoPbWCdg2-IPttpvf6oJrngQcX5cA3MBfmpFFSELap93Vy3v3OHyEY8KyJmSkT8mGqmnvLCaYw3R0sLbdQcfPBEA270aBy9mT-CQDfK8Dq6JCqPPEJxqVyeo1cWrKdeqDebJ0X205w3INDLD1dv0VbEgQS1aZKyUx3ktgbhB6HKnItSZOLPhQG5Z9k7qZig2m6fjs1MHKOiyY5BBF8jHqjDSm5tNy1QMiBd6j7DavUUY83tOoHCI0aks5C-RDoZVpZuHr0pvCZ1LcclEqwcH1l54EUgc9BzB8DIoovwh5eyJ80OJ_9WDCl8Kl3mVeIYdwAWZcBGSQzkBGCe4OZvXMISIVlVkXWXPAZ60otMvp_nL6Hait-99B87ftqkkDq5NgXi44AjU17SjgkSNYIrjmOBe2Qa9KxwAWVJaugB-4MRdivWTQz5xZ4WybB6b9VkQrSdyZ5Lm8b9EeGwrk8HpBRHSCQrgDes4M1ixYil45Ky2XA-s2EBwXd0OY0PB4_15M2PuRgTzE1v6Rd6rg2LvKwPvbNtXjkAjf9fdsSke_rYp-vceBXrI46TUH44CYFm6zbWxd2F592s54zxLg-7gCUltQjFLqJDPjqpEi8PpY-WrO1zH_AHtBDUms3nWv2SNdWNjezSmwpnDU1nAKjpFllcPjuztpmNMNyd7XCmQFEEKc5NzXy0?></g></svg>