<svg xmlns="http://www.w3.org/2000/svg" xmlns:xlink="http://www.w3.org/1999/xlink" contentStyleType="text/css" data-diagram-type="ACTIVITY" height="1069px" preserveAspectRatio="none" style="width:845px;height:1069px;background:#FFFFFF;" version="1.1" viewBox="0 0 845 1069" width="845px" zoomAndPan="magnify"><?plantuml 1.2026.5?><defs/><g><ellipse cx="310.9529" cy="25" fill="#2D3748" rx="10" ry="10" style="stroke:#222222;stroke-width:1;"/><rect fill="#FEFEFE" height="61.9063" rx="12.5" ry="12.5" style="stroke:#2D3748;stroke-width:0.5;" width="152.7441" x="234.5808" y="55"/><text fill="#000000" font-family="sans-serif" font-size="12" lengthAdjust="spacing" textLength="117.5977" x="244.5808" y="76.1387">POST /utility/review</text><text fill="#000000" font-family="sans-serif" font-size="12" lengthAdjust="spacing" textLength="90.7734" x="244.5808" y="90.1074">&#8594; customer-bff</text><text fill="#000000" font-family="sans-serif" font-size="12" lengthAdjust="spacing" textLength="132.7441" x="244.5808" y="104.0762">&#8594; gRPC CreateReview</text><rect fill="#FEFEFE" height="33.9688" rx="12.5" ry="12.5" style="stroke:#2D3748;stroke-width:0.5;" width="217.8594" x="202.0232" y="136.9063"/><text fill="#000000" font-family="sans-serif" font-size="12" lengthAdjust="spacing" textLength="197.8594" x="212.0232" y="158.0449">utility-service l&#432;u Review v&#224;o DB</text><rect fill="#FEFEFE" height="61.9063" rx="12.5" ry="12.5" style="stroke:#2D3748;stroke-width:0.5;" width="196.5664" x="212.6697" y="190.875"/><text fill="#000000" font-family="sans-serif" font-size="12" lengthAdjust="spacing" textLength="160.0195" x="222.6697" y="212.0137">C&#7853;p nh&#7853;t RatingAggregate</text><text fill="#000000" font-family="sans-serif" font-size="12" lengthAdjust="spacing" textLength="176.5664" x="222.6697" y="225.9824">averageRating, totalReviews,</text><text fill="#000000" font-family="sans-serif" font-size="12" lengthAdjust="spacing" textLength="78.4805" x="222.6697" y="239.9512">star1-5Count</text><rect fill="#FEFEFE" height="47.9375" rx="12.5" ry="12.5" style="stroke:#2D3748;stroke-width:0.5;" width="306.582" x="157.6619" y="272.7813"/><text fill="#000000" font-family="sans-serif" font-size="12" lengthAdjust="spacing" textLength="286.582" x="167.6619" y="293.9199">Fire-and-forget gRPC GenerateReviewSummary</text><text fill="#000000" font-family="sans-serif" font-size="12" lengthAdjust="spacing" textLength="71.8711" x="167.6619" y="307.8887">&#8594; ai-service</text><rect fill="#FEFEFE" height="33.9688" rx="12.5" ry="12.5" style="stroke:#2D3748;stroke-width:0.5;" width="223.0684" x="199.4187" y="340.7188"/><text fill="#000000" font-family="sans-serif" font-size="12" lengthAdjust="spacing" textLength="203.0684" x="209.4187" y="361.8574">ai-service nh&#7853;n request productId</text><rect fill="#FEFEFE" height="61.9063" rx="12.5" ry="12.5" style="stroke:#2D3748;stroke-width:0.5;" width="158.791" x="231.5574" y="394.6875"/><text fill="#000000" font-family="sans-serif" font-size="12" lengthAdjust="spacing" textLength="138.791" x="241.5574" y="415.8262">gRPC GetManyReviews</text><text fill="#000000" font-family="sans-serif" font-size="12" lengthAdjust="spacing" textLength="95.3027" x="241.5574" y="429.7949">&#8594; utility-service</text><text fill="#000000" font-family="sans-serif" font-size="12" lengthAdjust="spacing" textLength="57.1582" x="241.5574" y="443.7637">limit: 100</text><polygon fill="#FEFEFE" points="266.6494,476.5938,355.2563,476.5938,367.2563,488.5938,355.2563,500.5938,266.6494,500.5938,254.6494,488.5938,266.6494,476.5938" style="stroke:#2D3748;stroke-width:0.5;stroke-linejoin:miter;stroke-miterlimit:10;"/><text fill="#000000" font-family="sans-serif" font-size="11" lengthAdjust="spacing" textLength="88.6069" x="266.6494" y="492.4019">S&#7889; reviews &#8805; 5?</text><text fill="#000000" font-family="sans-serif" font-size="11" lengthAdjust="spacing" textLength="34.0259" x="220.6235" y="485.9995">kh&#244;ng</text><text fill="#000000" font-family="sans-serif" font-size="11" lengthAdjust="spacing" textLength="12.7778" x="367.2563" y="485.9995">c&#243;</text><rect fill="#FEFEFE" height="33.9688" rx="12.5" ry="12.5" style="stroke:#2D3748;stroke-width:0.5;" width="132.418" x="16" y="510.5938"/><text fill="#000000" font-family="sans-serif" font-size="12" lengthAdjust="spacing" textLength="112.418" x="26" y="531.7324">Skip: ch&#432;a &#273;&#7911; data</text><ellipse cx="82.209" cy="589.5625" fill="none" rx="10" ry="10" style="stroke:#2D3748;stroke-width:1.5;"/><line style="stroke:#2D3748;stroke-width:2.5;" x1="76.0218" x2="88.3962" y1="583.3753" y2="595.7497"/><line style="stroke:#2D3748;stroke-width:2.5;" x1="88.3962" x2="76.0218" y1="583.3753" y2="595.7497"/><polygon fill="#FEFEFE" points="447.3167,510.5938,632.0769,510.5938,644.0769,522.5938,632.0769,534.5938,447.3167,534.5938,435.3167,522.5938,447.3167,510.5938" style="stroke:#2D3748;stroke-width:0.5;stroke-linejoin:miter;stroke-miterlimit:10;"/><text fill="#000000" font-family="sans-serif" font-size="11" lengthAdjust="spacing" textLength="184.7603" x="447.3167" y="526.4019">ReviewSummary &#273;&#227; c&#243; trong DB?</text><text fill="#000000" font-family="sans-serif" font-size="11" lengthAdjust="spacing" textLength="12.7778" x="422.5388" y="519.9995">c&#243;</text><text fill="#000000" font-family="sans-serif" font-size="11" lengthAdjust="spacing" textLength="34.0259" x="644.0769" y="519.9995">kh&#244;ng</text><polygon fill="#FEFEFE" points="302.0669,544.5938,425.1831,544.5938,437.1831,557.3984,425.1831,570.2031,302.0669,570.2031,290.0669,557.3984,302.0669,544.5938" style="stroke:#2D3748;stroke-width:0.5;stroke-linejoin:miter;stroke-miterlimit:10;"/><text fill="#000000" font-family="sans-serif" font-size="11" lengthAdjust="spacing" textLength="88.1182" x="302.0669" y="554.8042">Cache &lt; 7 ng&#224;y</text><text fill="#000000" font-family="sans-serif" font-size="11" lengthAdjust="spacing" textLength="123.1162" x="302.0669" y="567.6089">AND &lt; 3 reviews m&#7899;i?</text><text fill="#000000" font-family="sans-serif" font-size="11" lengthAdjust="spacing" textLength="12.7778" x="277.2891" y="554.8042">c&#243;</text><text fill="#000000" font-family="sans-serif" font-size="11" lengthAdjust="spacing" textLength="34.0259" x="437.1831" y="554.8042">kh&#244;ng</text><rect fill="#FEFEFE" height="33.9688" rx="12.5" ry="12.5" style="stroke:#2D3748;stroke-width:0.5;" width="146.8262" x="188.418" y="580.2031"/><text fill="#000000" font-family="sans-serif" font-size="12" lengthAdjust="spacing" textLength="126.8262" x="198.418" y="601.3418">Skip: cache c&#242;n valid</text><ellipse cx="261.8311" cy="644.1719" fill="none" rx="10" ry="10" style="stroke:#2D3748;stroke-width:1.5;"/><line style="stroke:#2D3748;stroke-width:2.5;" x1="255.6439" x2="268.0182" y1="637.9847" y2="650.3591"/><line style="stroke:#2D3748;stroke-width:2.5;" x1="268.0182" x2="255.6439" y1="637.9847" y2="650.3591"/><rect fill="#FEFEFE" height="33.9688" rx="12.5" ry="12.5" style="stroke:#2D3748;stroke-width:0.5;" width="220.3496" x="355.2441" y="580.2031"/><text fill="#000000" font-family="sans-serif" font-size="12" lengthAdjust="spacing" textLength="200.3496" x="365.2441" y="601.3418">Chu&#7849;n b&#7883; prompt v&#7899;i review texts</text><rect fill="#FEFEFE" height="33.9688" rx="12.5" ry="12.5" style="stroke:#2D3748;stroke-width:0.5;" width="220.3496" x="605.5938" y="544.5938"/><text fill="#000000" font-family="sans-serif" font-size="12" lengthAdjust="spacing" textLength="200.3496" x="615.5938" y="565.7324">Chu&#7849;n b&#7883; prompt v&#7899;i review texts</text><polygon fill="#FEFEFE" points="539.6968,664.1719,551.6968,676.1719,539.6968,688.1719,527.6968,676.1719,539.6968,664.1719" style="stroke:#2D3748;stroke-width:0.5;stroke-linejoin:miter;stroke-miterlimit:10;"/><rect fill="#FEFEFE" height="61.9063" rx="12.5" ry="12.5" style="stroke:#2D3748;stroke-width:0.5;" width="194.3809" x="442.5063" y="708.1719"/><text fill="#000000" font-family="sans-serif" font-size="12" lengthAdjust="spacing" textLength="78.2051" x="452.5063" y="729.3105">Call Groq API</text><text fill="#000000" font-family="sans-serif" font-size="12" lengthAdjust="spacing" textLength="174.3809" x="452.5063" y="743.2793">model: kimi-k2-instruct-0905</text><text fill="#000000" font-family="sans-serif" font-size="12" lengthAdjust="spacing" textLength="167.8242" x="452.5063" y="757.248">prompt: ph&#226;n t&#237;ch &#432;u/nh&#432;&#7907;c</text><polygon fill="#FEFEFE" points="491.5422,790.0781,587.8513,790.0781,599.8513,802.0781,587.8513,814.0781,491.5422,814.0781,479.5422,802.0781,491.5422,790.0781" style="stroke:#2D3748;stroke-width:0.5;stroke-linejoin:miter;stroke-miterlimit:10;"/><text fill="#000000" font-family="sans-serif" font-size="11" lengthAdjust="spacing" textLength="96.3091" x="491.5422" y="805.8862">API response OK?</text><text fill="#000000" font-family="sans-serif" font-size="11" lengthAdjust="spacing" textLength="34.0259" x="445.5164" y="799.4839">kh&#244;ng</text><text fill="#000000" font-family="sans-serif" font-size="11" lengthAdjust="spacing" textLength="12.7778" x="599.8513" y="799.4839">c&#243;</text><rect fill="#FFC0CB" height="33.9688" rx="12.5" ry="12.5" style="stroke:#2D3748;stroke-width:0.5;" width="117.0137" x="386.4023" y="824.0781"/><text fill="#000000" font-family="sans-serif" font-size="12" lengthAdjust="spacing" textLength="97.0137" x="396.4023" y="845.2168">Error: log &amp; skip</text><ellipse cx="444.9092" cy="902.0156" fill="none" rx="10" ry="10" style="stroke:#2D3748;stroke-width:1.5;"/><line style="stroke:#2D3748;stroke-width:2.5;" x1="438.722" x2="451.0964" y1="895.8284" y2="908.2028"/><line style="stroke:#2D3748;stroke-width:2.5;" x1="451.0964" x2="438.722" y1="895.8284" y2="908.2028"/><rect fill="#FEFEFE" height="47.9375" rx="12.5" ry="12.5" style="stroke:#2D3748;stroke-width:0.5;" width="149.1758" x="559.8965" y="824.0781"/><text fill="#000000" font-family="sans-serif" font-size="12" lengthAdjust="spacing" textLength="129.1758" x="569.8965" y="845.2168">Parse JSON response:</text><text fill="#000000" font-family="sans-serif" font-size="12" lengthAdjust="spacing" textLength="125.8242" x="569.8965" y="859.1855">pros, cons, summary</text><rect fill="#FEFEFE" height="47.9375" rx="12.5" ry="12.5" style="stroke:#2D3748;stroke-width:0.5;" width="222.1367" x="523.416" y="905.9844"/><text fill="#000000" font-family="sans-serif" font-size="12" lengthAdjust="spacing" textLength="202.1367" x="533.416" y="927.123">Upsert ReviewSummary trong DB</text><text fill="#000000" font-family="sans-serif" font-size="12" lengthAdjust="spacing" textLength="102.5391" x="533.416" y="941.0918">productId unique</text><rect fill="#FEFEFE" height="33.9688" rx="12.5" ry="12.5" style="stroke:#2D3748;stroke-width:0.5;" width="162.3652" x="553.3018" y="973.9219"/><text fill="#000000" font-family="sans-serif" font-size="12" lengthAdjust="spacing" textLength="142.3652" x="563.3018" y="995.0605">End: Summary updated</text><ellipse cx="310.9529" cy="1038.8906" fill="none" rx="11" ry="11" style="stroke:#222222;stroke-width:1;"/><ellipse cx="310.9529" cy="1038.8906" fill="#222222" rx="6" ry="6" style="stroke:#222222;stroke-width:1;"/><line style="stroke:#4A5568;stroke-width:1;" x1="310.9529" x2="310.9529" y1="35" y2="55"/><polygon fill="#4A5568" points="306.9529,45,310.9529,55,314.9529,45,310.9529,49" style="stroke:#4A5568;stroke-width:1;stroke-linejoin:miter;stroke-miterlimit:10;"/><line style="stroke:#4A5568;stroke-width:1;" x1="310.9529" x2="310.9529" y1="116.9063" y2="136.9063"/><polygon fill="#4A5568" points="306.9529,126.9063,310.9529,136.9063,314.9529,126.9063,310.9529,130.9063" style="stroke:#4A5568;stroke-width:1;stroke-linejoin:miter;stroke-miterlimit:10;"/><line style="stroke:#4A5568;stroke-width:1;" x1="310.9529" x2="310.9529" y1="170.875" y2="190.875"/><polygon fill="#4A5568" points="306.9529,180.875,310.9529,190.875,314.9529,180.875,310.9529,184.875" style="stroke:#4A5568;stroke-width:1;stroke-linejoin:miter;stroke-miterlimit:10;"/><line style="stroke:#4A5568;stroke-width:1;" x1="310.9529" x2="310.9529" y1="252.7813" y2="272.7813"/><polygon fill="#4A5568" points="306.9529,262.7813,310.9529,272.7813,314.9529,262.7813,310.9529,266.7813" style="stroke:#4A5568;stroke-width:1;stroke-linejoin:miter;stroke-miterlimit:10;"/><line style="stroke:#4A5568;stroke-width:1;" x1="310.9529" x2="310.9529" y1="320.7188" y2="340.7188"/><polygon fill="#4A5568" points="306.9529,330.7188,310.9529,340.7188,314.9529,330.7188,310.9529,334.7188" style="stroke:#4A5568;stroke-width:1;stroke-linejoin:miter;stroke-miterlimit:10;"/><line style="stroke:#4A5568;stroke-width:1;" x1="310.9529" x2="310.9529" y1="374.6875" y2="394.6875"/><polygon fill="#4A5568" points="306.9529,384.6875,310.9529,394.6875,314.9529,384.6875,310.9529,388.6875" style="stroke:#4A5568;stroke-width:1;stroke-linejoin:miter;stroke-miterlimit:10;"/><line style="stroke:#4A5568;stroke-width:1;" x1="82.209" x2="82.209" y1="544.5625" y2="579.5625"/><polygon fill="#4A5568" points="78.209,569.5625,82.209,579.5625,86.209,569.5625,82.209,573.5625" style="stroke:#4A5568;stroke-width:1;stroke-linejoin:miter;stroke-miterlimit:10;"/><line style="stroke:#4A5568;stroke-width:1;" x1="261.8311" x2="261.8311" y1="614.1719" y2="634.1719"/><polygon fill="#4A5568" points="257.8311,624.1719,261.8311,634.1719,265.8311,624.1719,261.8311,628.1719" style="stroke:#4A5568;stroke-width:1;stroke-linejoin:miter;stroke-miterlimit:10;"/><line style="stroke:#4A5568;stroke-width:1;" x1="290.0669" x2="261.8311" y1="557.3984" y2="557.3984"/><line style="stroke:#4A5568;stroke-width:1;" x1="261.8311" x2="261.8311" y1="557.3984" y2="580.2031"/><polygon fill="#4A5568" points="257.8311,570.2031,261.8311,580.2031,265.8311,570.2031,261.8311,574.2031" style="stroke:#4A5568;stroke-width:1;stroke-linejoin:miter;stroke-miterlimit:10;"/><line style="stroke:#4A5568;stroke-width:1;" x1="437.1831" x2="465.4189" y1="557.3984" y2="557.3984"/><line style="stroke:#4A5568;stroke-width:1;" x1="465.4189" x2="465.4189" y1="557.3984" y2="580.2031"/><polygon fill="#4A5568" points="461.4189,570.2031,465.4189,580.2031,469.4189,570.2031,465.4189,574.2031" style="stroke:#4A5568;stroke-width:1;stroke-linejoin:miter;stroke-miterlimit:10;"/><line style="stroke:#4A5568;stroke-width:1;" x1="465.4189" x2="465.4189" y1="614.1719" y2="676.1719"/><line style="stroke:#4A5568;stroke-width:1;" x1="465.4189" x2="527.6968" y1="676.1719" y2="676.1719"/><polygon fill="#4A5568" points="517.6968,672.1719,527.6968,676.1719,517.6968,680.1719,521.6968,676.1719" style="stroke:#4A5568;stroke-width:1;stroke-linejoin:miter;stroke-miterlimit:10;"/><line style="stroke:#4A5568;stroke-width:1;" x1="435.3167" x2="363.625" y1="522.5938" y2="522.5938"/><line style="stroke:#4A5568;stroke-width:1;" x1="363.625" x2="363.625" y1="522.5938" y2="544.5938"/><polygon fill="#4A5568" points="359.625,534.5938,363.625,544.5938,367.625,534.5938,363.625,538.5938" style="stroke:#4A5568;stroke-width:1;stroke-linejoin:miter;stroke-miterlimit:10;"/><line style="stroke:#4A5568;stroke-width:1;" x1="644.0769" x2="715.7686" y1="522.5938" y2="522.5938"/><line style="stroke:#4A5568;stroke-width:1;" x1="715.7686" x2="715.7686" y1="522.5938" y2="544.5938"/><polygon fill="#4A5568" points="711.7686,534.5938,715.7686,544.5938,719.7686,534.5938,715.7686,538.5938" style="stroke:#4A5568;stroke-width:1;stroke-linejoin:miter;stroke-miterlimit:10;"/><line style="stroke:#4A5568;stroke-width:1;" x1="715.7686" x2="715.7686" y1="578.5625" y2="676.1719"/><line style="stroke:#4A5568;stroke-width:1;" x1="715.7686" x2="551.6968" y1="676.1719" y2="676.1719"/><polygon fill="#4A5568" points="561.6968,672.1719,551.6968,676.1719,561.6968,680.1719,557.6968,676.1719" style="stroke:#4A5568;stroke-width:1;stroke-linejoin:miter;stroke-miterlimit:10;"/><line style="stroke:#4A5568;stroke-width:1;" x1="539.6968" x2="539.6968" y1="688.1719" y2="708.1719"/><polygon fill="#4A5568" points="535.6968,698.1719,539.6968,708.1719,543.6968,698.1719,539.6968,702.1719" style="stroke:#4A5568;stroke-width:1;stroke-linejoin:miter;stroke-miterlimit:10;"/><line style="stroke:#4A5568;stroke-width:1;" x1="444.9092" x2="444.9092" y1="858.0469" y2="892.0156"/><polygon fill="#4A5568" points="440.9092,882.0156,444.9092,892.0156,448.9092,882.0156,444.9092,886.0156" style="stroke:#4A5568;stroke-width:1;stroke-linejoin:miter;stroke-miterlimit:10;"/><line style="stroke:#4A5568;stroke-width:1;" x1="634.4844" x2="634.4844" y1="872.0156" y2="905.9844"/><polygon fill="#4A5568" points="630.4844,895.9844,634.4844,905.9844,638.4844,895.9844,634.4844,899.9844" style="stroke:#4A5568;stroke-width:1;stroke-linejoin:miter;stroke-miterlimit:10;"/><line style="stroke:#4A5568;stroke-width:1;" x1="634.4844" x2="634.4844" y1="953.9219" y2="973.9219"/><polygon fill="#4A5568" points="630.4844,963.9219,634.4844,973.9219,638.4844,963.9219,634.4844,967.9219" style="stroke:#4A5568;stroke-width:1;stroke-linejoin:miter;stroke-miterlimit:10;"/><line style="stroke:#4A5568;stroke-width:1;" x1="479.5422" x2="444.9092" y1="802.0781" y2="802.0781"/><line style="stroke:#4A5568;stroke-width:1;" x1="444.9092" x2="444.9092" y1="802.0781" y2="824.0781"/><polygon fill="#4A5568" points="440.9092,814.0781,444.9092,824.0781,448.9092,814.0781,444.9092,818.0781" style="stroke:#4A5568;stroke-width:1;stroke-linejoin:miter;stroke-miterlimit:10;"/><line style="stroke:#4A5568;stroke-width:1;" x1="599.8513" x2="634.4844" y1="802.0781" y2="802.0781"/><line style="stroke:#4A5568;stroke-width:1;" x1="634.4844" x2="634.4844" y1="802.0781" y2="824.0781"/><polygon fill="#4A5568" points="630.4844,814.0781,634.4844,824.0781,638.4844,814.0781,634.4844,818.0781" style="stroke:#4A5568;stroke-width:1;stroke-linejoin:miter;stroke-miterlimit:10;"/><line style="stroke:#4A5568;stroke-width:1;" x1="634.4844" x2="634.4844" y1="1007.8906" y2="1012.8906"/><line style="stroke:#4A5568;stroke-width:1;" x1="634.4844" x2="310.9529" y1="1012.8906" y2="1012.8906"/><line style="stroke:#4A5568;stroke-width:1;" x1="310.9529" x2="310.9529" y1="1012.8906" y2="1027.8906"/><polygon fill="#4A5568" points="306.9529,1017.8906,310.9529,1027.8906,314.9529,1017.8906,310.9529,1021.8906" style="stroke:#4A5568;stroke-width:1;stroke-linejoin:miter;stroke-miterlimit:10;"/><line style="stroke:#4A5568;stroke-width:1;" x1="539.6968" x2="539.6968" y1="770.0781" y2="790.0781"/><polygon fill="#4A5568" points="535.6968,780.0781,539.6968,790.0781,543.6968,780.0781,539.6968,784.0781" style="stroke:#4A5568;stroke-width:1;stroke-linejoin:miter;stroke-miterlimit:10;"/><line style="stroke:#4A5568;stroke-width:1;" x1="254.6494" x2="82.209" y1="488.5938" y2="488.5938"/><line style="stroke:#4A5568;stroke-width:1;" x1="82.209" x2="82.209" y1="488.5938" y2="510.5938"/><polygon fill="#4A5568" points="78.209,500.5938,82.209,510.5938,86.209,500.5938,82.209,504.5938" style="stroke:#4A5568;stroke-width:1;stroke-linejoin:miter;stroke-miterlimit:10;"/><line style="stroke:#4A5568;stroke-width:1;" x1="367.2563" x2="539.6968" y1="488.5938" y2="488.5938"/><line style="stroke:#4A5568;stroke-width:1;" x1="539.6968" x2="539.6968" y1="488.5938" y2="510.5938"/><polygon fill="#4A5568" points="535.6968,500.5938,539.6968,510.5938,543.6968,500.5938,539.6968,504.5938" style="stroke:#4A5568;stroke-width:1;stroke-linejoin:miter;stroke-miterlimit:10;"/><line style="stroke:#4A5568;stroke-width:1;" x1="310.9529" x2="310.9529" y1="456.5938" y2="476.5938"/><polygon fill="#4A5568" points="306.9529,466.5938,310.9529,476.5938,314.9529,466.5938,310.9529,470.5938" style="stroke:#4A5568;stroke-width:1;stroke-linejoin:miter;stroke-miterlimit:10;"/><?plantuml-src bLJTIjn05BwVfpWW58KDhZzRRLOiQ_p1bkhYjWym9hF9a6GcpaoY-mA5qYjxsnkfbD8BGTfUkPSflaTyafxyx2xMXL822JFd-xxppJbdeaCk4gfe32PWCGENgbCfY9vkzrp3Csv6EzGDVILJuJaoaWeMzlVAPnvIAe-f1hMwkxQnlZa7DJ1KcN-1zgRPdaAKakTDSBtNwJpV94INciJk7m_Umd9gU8GIoufbd9sJX_UVm4sraJ5JrkbmM6tu9tq77CMeOISLh4liXcTffZBkCeZkRrEeev3bLn9sTn3b57St2OW0FmPEgE72x_c-OZvA4PenHNrMRxV0I4EZMa6tAfChLiV1KXeKskUAMLHurb0gdvdQqW4Jg30nDKZZcAfHvPZoYJ7apXQr4m6AdQLC6qYKz5BN77g8QXJD6of6ZOjAwg-3aeZ7tDYmqcvt2U53M1mKuqkeowVXuSDNwBnSAiT4m68OvB-4lqG0x4784nlSuFwMmk_BOlmDF6fe5qDCU8H5ci6Yc_yiiQNeeoCX8Ry6Z89HKlXOscc6XbAJ7Ee63BPW0uIVNur8xsWNLsjJSt4n_ioVKcVkAhwR_n2GqOXxtIPSEgo-bSlPeIgg4wJ5tNS1fyNuOrdGE36GbOcQj63OXT6r50hn8Padz1yo4v6ogWwD8ZXGyWnw_KCIIuz5DeJO8IjSjRZGHc5xhVQBTeVKcZOaGVv5WCblt01mPfS5jgGONxlTMhAi8sfXLfr8WJQFNyzf9wRUmvkbR8Ya3yy0BrpIXQsjXOIBS7kRpAhsgBD8wrE56wy6nqVJ57RfJRV0nKKBTDtpkc3skmJdpi3ZSPXC0PdEBwI2uqWt9FmVs301fmaE6lDcbQlVUCMJFm00?></g></svg>