<svg xmlns="http://www.w3.org/2000/svg" xmlns:xlink="http://www.w3.org/1999/xlink" contentStyleType="text/css" data-diagram-type="DESCRIPTION" height="679px" preserveAspectRatio="none" style="width:783px;height:679px;background:#FFFFFF;" version="1.1" viewBox="0 0 783 679" width="783px" zoomAndPan="magnify"><?plantuml 1.2026.5?><defs/><g><g class="cluster" data-qualified-name="..2" data-source-line="6" id="ent0003"><rect fill="none" height="658" rx="2.5" ry="2.5" style="stroke:#181818;stroke-width:1;" width="671.47" x="97.86" y="7"/></g><!--entity UC_Login--><g class="entity" data-qualified-name="..2.UC_Login" data-source-line="8" id="ent0004"><ellipse cx="253.5741" cy="40.0048" fill="#F1F1F1" rx="74.9741" ry="17.3948" style="stroke:#181818;stroke-width:0.5;"/><text fill="#000000" font-family="sans-serif" font-size="14" lengthAdjust="spacing" textLength="118.665" x="194.2416" y="44.6533">Login Dashboard</text></g><!--entity UC_Users--><g class="entity" data-qualified-name="..2.UC_Users" data-source-line="9" id="ent0005"><ellipse cx="253.5745" cy="113.0029" fill="#F1F1F1" rx="90.9645" ry="20.5929" style="stroke:#181818;stroke-width:0.5;"/><text fill="#000000" font-family="sans-serif" font-size="14" lengthAdjust="spacing" textLength="155.9209" x="175.6141" y="117.6513">Manage System Users</text></g><!--entity UC_RBAC--><g class="entity" data-qualified-name="..2.UC_RBAC" data-source-line="10" id="ent0006"><ellipse cx="635.7957" cy="112.9951" fill="#F1F1F1" rx="117.5257" ry="25.9051" style="stroke:#181818;stroke-width:0.5;"/><text fill="#000000" font-family="sans-serif" font-size="14" lengthAdjust="spacing" textLength="214.0674" x="528.762" y="117.6436">Configure Roles &amp; Permissions</text></g><!--entity UC_Approve_Merch--><g class="entity" data-qualified-name="..2.UC_Approve_Merch" data-source-line="13" id="ent0007"><ellipse cx="253.5657" cy="196.0031" fill="#F1F1F1" rx="123.0157" ry="27.0031" style="stroke:#181818;stroke-width:0.5;"/><text fill="#000000" font-family="sans-serif" font-size="14" lengthAdjust="spacing" textLength="225.7773" x="140.6771" y="200.6516">Approve Merchant Registrations</text></g><!--entity UC_Approve_Payout--><g class="entity" data-qualified-name="..2.UC_Approve_Payout" data-source-line="14" id="ent0008"><ellipse cx="253.5684" cy="281.0037" fill="#F1F1F1" rx="102.0184" ry="22.8037" style="stroke:#181818;stroke-width:0.5;"/><text fill="#000000" font-family="sans-serif" font-size="14" lengthAdjust="spacing" textLength="180.4961" x="163.3203" y="285.6521">Approve Payout Requests</text></g><!--entity UC_Audit_Balance--><g class="entity" data-qualified-name="..2.UC_Audit_Balance" data-source-line="15" id="ent0009"><ellipse cx="635.7962" cy="281.0012" fill="#F1F1F1" rx="82.5562" ry="18.9112" style="stroke:#181818;stroke-width:0.5;"/><text fill="#000000" font-family="sans-serif" font-size="14" lengthAdjust="spacing" textLength="136.6641" x="567.4642" y="285.6497">Audit Shop Balance</text></g><!--entity UC_Catalog--><g class="entity" data-qualified-name="..2.UC_Catalog" data-source-line="18" id="ent0010"><ellipse cx="253.5669" cy="369.0014" fill="#F1F1F1" rx="139.7069" ry="30.3414" style="stroke:#181818;stroke-width:0.5;"/><text fill="#000000" font-family="sans-serif" font-size="14" lengthAdjust="spacing" textLength="260.9893" x="123.0723" y="373.6498">Manage System Categories &amp; Brands</text></g><!--entity UC_Moderate--><g class="entity" data-qualified-name="..2.UC_Moderate" data-source-line="19" id="ent0011"><ellipse cx="253.5728" cy="458.9986" fill="#F1F1F1" rx="108.9928" ry="24.1986" style="stroke:#181818;stroke-width:0.5;"/><text fill="#000000" font-family="sans-serif" font-size="14" lengthAdjust="spacing" textLength="195.6992" x="155.7232" y="463.647">Moderate Reported Content</text></g><!--entity UC_Del_Review--><g class="entity" data-qualified-name="..2.UC_Del_Review" data-source-line="20" id="ent0012"><ellipse cx="635.7984" cy="458.9977" fill="#F1F1F1" rx="114.5384" ry="25.3077" style="stroke:#181818;stroke-width:0.5;"/><text fill="#000000" font-family="sans-serif" font-size="14" lengthAdjust="spacing" textLength="207.6621" x="531.9673" y="463.6461">Delete Inappropriate Reviews</text></g><!--entity UC_Promotions--><g class="entity" data-qualified-name="..2.UC_Promotions" data-source-line="23" id="ent0013"><ellipse cx="253.567" cy="541.9974" fill="#F1F1F1" rx="109.037" ry="24.2074" style="stroke:#181818;stroke-width:0.5;"/><text fill="#000000" font-family="sans-serif" font-size="14" lengthAdjust="spacing" textLength="195.7949" x="155.6695" y="546.6458">Manage System Promotions</text></g><!--entity UC_Transactions--><g class="entity" data-qualified-name="..2.UC_Transactions" data-source-line="24" id="ent0014"><ellipse cx="253.57" cy="624.996" fill="#F1F1F1" rx="109.28" ry="24.256" style="stroke:#181818;stroke-width:0.5;"/><text fill="#000000" font-family="sans-serif" font-size="14" lengthAdjust="spacing" textLength="196.3213" x="155.4094" y="629.6444">Track Platform Transactions</text></g><!--entity UC_Refund--><g class="entity" data-qualified-name="..2.UC_Refund" data-source-line="25" id="ent0015"><ellipse cx="635.8005" cy="614.0001" fill="#F1F1F1" rx="89.4505" ry="20.2901" style="stroke:#181818;stroke-width:0.5;"/><text fill="#000000" font-family="sans-serif" font-size="14" lengthAdjust="spacing" textLength="152.4961" x="559.5525" y="618.6485">Process Order Refund</text></g><!--entity admin--><g class="entity" data-qualified-name="admin" data-source-line="4" id="ent0001"><ellipse cx="28.4321" cy="307.35" fill="#F1F1F1" rx="8" ry="8" style="stroke:#181818;stroke-width:0.5;"/><path d="M28.4321,315.35 L28.4321,342.35 M15.4321,323.35 L41.4321,323.35 M28.4321,342.35 L15.4321,357.35 M28.4321,342.35 L41.4321,357.35" fill="none" style="stroke:#181818;stroke-width:0.5;"/><text fill="#000000" font-family="sans-serif" font-size="14" lengthAdjust="spacing" textLength="44.8643" x="6" y="371.8451">Admin</text></g><!--link admin to UC_Login--><g class="link" data-entity-1="ent0001" data-entity-2="ent0004" data-link-type="dependency" data-source-line="28" id="lnk16"><path d="M33.28,298.4 C40.57,233.33 58.52,105.88 89.86,75 C113.02,52.19 142.2714,43.2192 173.3714,39.7192" fill="none" id="admin-to-UC_Login" style="stroke:#181818;stroke-width:1;"/><polygon fill="#181818" points="178.34,39.16,168.9491,36.1916,173.3714,39.7192,169.8438,44.1414,178.34,39.16" style="stroke:#181818;stroke-width:1;stroke-linejoin:miter;stroke-miterlimit:10;"/></g><!--link admin to UC_Users--><g class="link" data-entity-1="ent0001" data-entity-2="ent0005" data-link-type="dependency" data-source-line="29" id="lnk17"><path d="M31.16,298.72 C35.19,256.42 48.23,189.25 89.86,151 C110.05,132.45 132.6053,123.3917 159.2053,118.1217" fill="none" id="admin-to-UC_Users" style="stroke:#181818;stroke-width:1;"/><polygon fill="#181818" points="164.11,117.15,154.5042,114.9754,159.2053,118.1217,156.059,122.8228,164.11,117.15" style="stroke:#181818;stroke-width:1;stroke-linejoin:miter;stroke-miterlimit:10;"/></g><!--link admin to UC_Approve_Merch--><g class="link" data-entity-1="ent0001" data-entity-2="ent0007" data-link-type="dependency" data-source-line="30" id="lnk18"><path d="M45.43,298.37 C55.48,278.55 70.27,255.57 89.86,241 C107.97,227.53 125.1254,219.5516 146.9454,212.9316" fill="none" id="admin-to-UC_Approve_Merch" style="stroke:#181818;stroke-width:1;"/><polygon fill="#181818" points="151.73,211.48,141.9563,210.2652,146.9454,212.9316,144.2789,217.9206,151.73,211.48" style="stroke:#181818;stroke-width:1;stroke-linejoin:miter;stroke-miterlimit:10;"/></g><!--link admin to UC_Approve_Payout--><g class="link" data-entity-1="ent0001" data-entity-2="ent0008" data-link-type="dependency" data-source-line="31" id="lnk19"><path d="M51.27,328.71 C60.35,325.44 71.04,321.8 80.86,319 C111.55,310.27 140.9093,303.3696 170.6893,297.0396" fill="none" id="admin-to-UC_Approve_Payout" style="stroke:#181818;stroke-width:1;"/><polygon fill="#181818" points="175.58,296,165.945,293.9586,170.6893,297.0396,167.6083,301.7838,175.58,296" style="stroke:#181818;stroke-width:1;stroke-linejoin:miter;stroke-miterlimit:10;"/></g><!--link admin to UC_Catalog--><g class="link" data-entity-1="ent0001" data-entity-2="ent0010" data-link-type="dependency" data-source-line="32" id="lnk20"><path d="M51.23,340.13 C71.52,343.04 98.4806,346.9001 130.9706,351.5601" fill="none" id="admin-to-UC_Catalog" style="stroke:#181818;stroke-width:1;"/><polygon fill="#181818" points="135.92,352.27,127.5791,347.0327,130.9706,351.5601,126.4433,354.9517,135.92,352.27" style="stroke:#181818;stroke-width:1;stroke-linejoin:miter;stroke-miterlimit:10;"/></g><!--link admin to UC_Moderate--><g class="link" data-entity-1="ent0001" data-entity-2="ent0011" data-link-type="dependency" data-source-line="33" id="lnk21"><path d="M50.71,375.43 C60.78,390.41 74.08,406.47 89.86,417 C110.62,430.84 130.808,438.8729 154.958,445.0929" fill="none" id="admin-to-UC_Moderate" style="stroke:#181818;stroke-width:1;"/><polygon fill="#181818" points="159.8,446.34,152.0821,440.2217,154.958,445.0929,150.0868,447.9688,159.8,446.34" style="stroke:#181818;stroke-width:1;stroke-linejoin:miter;stroke-miterlimit:10;"/></g><!--link admin to UC_Promotions--><g class="link" data-entity-1="ent0001" data-entity-2="ent0013" data-link-type="dependency" data-source-line="34" id="lnk22"><path d="M33.38,375.55 C39.27,412.94 53.87,468.64 89.86,501 C107.3,516.68 125.0345,525.2407 147.7745,531.4107" fill="none" id="admin-to-UC_Promotions" style="stroke:#181818;stroke-width:1;"/><polygon fill="#181818" points="152.6,532.72,144.9615,526.5028,147.7745,531.4107,142.8666,534.2237,152.6,532.72" style="stroke:#181818;stroke-width:1;stroke-linejoin:miter;stroke-miterlimit:10;"/></g><!--link admin to UC_Transactions--><g class="link" data-entity-1="ent0001" data-entity-2="ent0014" data-link-type="dependency" data-source-line="35" id="lnk23"><path d="M33.96,375.27 C42.04,437.05 60.86,554.79 89.86,584 C106.18,600.43 123.2428,609.2702 145.6428,615.5002" fill="none" id="admin-to-UC_Transactions" style="stroke:#181818;stroke-width:1;"/><polygon fill="#181818" points="150.46,616.84,142.8609,610.5747,145.6428,615.5002,140.7173,618.2821,150.46,616.84" style="stroke:#181818;stroke-width:1;stroke-linejoin:miter;stroke-miterlimit:10;"/></g><!--link UC_Users to UC_RBAC--><g class="link" data-entity-1="ent0005" data-entity-2="ent0006" data-link-type="dependency" data-source-line="37" id="lnk24"><path d="M344.68,113 C396.51,113 457.2,113 512.96,113" fill="none" id="UC_Users-to-UC_RBAC" style="stroke:#181818;stroke-width:1;stroke-dasharray:7,7;"/><polygon fill="#181818" points="517.96,113,508.96,109,512.96,113,508.96,117,517.96,113" style="stroke:#181818;stroke-width:1;stroke-linejoin:miter;stroke-miterlimit:10;"/><text fill="#000000" font-family="sans-serif" font-size="13" lengthAdjust="spacing" textLength="63.0068" x="424.28" y="109.0669">&#171;include&#187;</text></g><!--link UC_Approve_Payout to UC_Audit_Balance--><g class="link" data-entity-1="ent0008" data-entity-2="ent0009" data-link-type="dependency" data-source-line="38" id="lnk25"><path d="M355.97,281 C417.57,281 490.18,281 547.88,281" fill="none" id="UC_Approve_Payout-to-UC_Audit_Balance" style="stroke:#181818;stroke-width:1;stroke-dasharray:7,7;"/><polygon fill="#181818" points="552.88,281,543.88,277,547.88,281,543.88,285,552.88,281" style="stroke:#181818;stroke-width:1;stroke-linejoin:miter;stroke-miterlimit:10;"/><text fill="#000000" font-family="sans-serif" font-size="13" lengthAdjust="spacing" textLength="63.0068" x="424.28" y="277.0669">&#171;include&#187;</text></g><!--link UC_Transactions to UC_Refund--><g class="link" data-entity-1="ent0014" data-entity-2="ent0015" data-link-type="dependency" data-source-line="39" id="lnk26"><path d="M362.26,621.88 C420.56,620.2 486.6821,618.2846 541.6521,616.6946" fill="none" id="UC_Transactions-to-UC_Refund" style="stroke:#181818;stroke-width:1;stroke-dasharray:7,7;"/><polygon fill="#181818" points="546.65,616.55,537.5381,612.8119,541.6521,616.6946,537.7694,620.8085,546.65,616.55" style="stroke:#181818;stroke-width:1;stroke-linejoin:miter;stroke-miterlimit:10;"/><text fill="#000000" font-family="sans-serif" font-size="13" lengthAdjust="spacing" textLength="61.1851" x="425.28" y="615.0669">&#171;extend&#187;</text></g><!--link UC_Moderate to UC_Del_Review--><g class="link" data-entity-1="ent0011" data-entity-2="ent0012" data-link-type="dependency" data-source-line="40" id="lnk27"><path d="M363.02,459 C412.41,459 465.88,459 515.91,459" fill="none" id="UC_Moderate-to-UC_Del_Review" style="stroke:#181818;stroke-width:1;stroke-dasharray:7,7;"/><polygon fill="#181818" points="520.91,459,511.91,455,515.91,459,511.91,463,520.91,459" style="stroke:#181818;stroke-width:1;stroke-linejoin:miter;stroke-miterlimit:10;"/><text fill="#000000" font-family="sans-serif" font-size="13" lengthAdjust="spacing" textLength="61.1851" x="425.28" y="455.0669">&#171;extend&#187;</text></g><?plantuml-src VLFBZjim3BpxAuWSsajtFw1O1CZZKg2B1actru2L6LjOMt8fEMrGzDzB-HKpMQnFrcXcH5AZy6fTWumrD6XUiQ13l5G4J2Pc5PqYH0ziYp92RXDelSioDD4pB5PvRTq2C02clonB17I5wFzc8Dz7U0d4y05snBKD8OaJtWOo60WMNtrX7Mmnb3yzSjvvlMoE7QoPp-YaE3XSGgIwimqZkrjeziQxaorQ9jZxYeAgODBjrwjD9njgNJKD-pDMYRubwT6UCVLxuztJ29w9JOakmfuA6oBttD5yO1qxrji6ExpuDib_jHJYdRBVlf6skOrmA7q3QwpG6PfKQUSuWFEkDXYnyeNq94E9vE9xSnKo5PvjDx8reykdiWQV6xNFIHgNCLFZEL8-7ZAgHeAMRQaY4Nrnc7fjsFOMPqk_f_E4S-oXUJVVMFp2fpIxMev9PVxmhIdl4g3xsh6llRgVAw9rtrcU0UmgZ2VFDSZI1JHAEiUqM4mDXT1NAGsTMZTbkbzb_-JrfCS23m_BQzGLrETPGJfDRsuDSL5xuvqfSBeIXSxceN3LR3PM1u-Fo_49mMTuUhBEL6rEosLsLzB8LGcz5yqFckoxcNLS-YEnodlgbBg1TesAelu7?></g></svg>